<mxfile host="Electron" modified="2023-08-14T21:45:42.656Z" agent="Mozilla/5.0 (Windows NT 10.0; Win64; x64) AppleWebKit/537.36 (KHTML, like Gecko) draw.io/21.6.1 Chrome/112.0.5615.204 Electron/24.6.1 Safari/537.36" etag="_37ApYm7IinY-AhNRs5Y" version="21.6.1" type="device">
  <diagram id="prtHgNgQTEPvFCAcTncT" name="Page-1">
    <mxGraphModel dx="2837" dy="1262" grid="1" gridSize="10" guides="1" tooltips="1" connect="1" arrows="1" fold="1" page="1" pageScale="1" pageWidth="827" pageHeight="1169" math="0" shadow="0">
      <root>
        <mxCell id="0" />
        <mxCell id="1" parent="0" />
        <mxCell id="2c5BFEw7uCcLmuuaQ_8N-22" style="edgeStyle=orthogonalEdgeStyle;rounded=0;orthogonalLoop=1;jettySize=auto;html=1;entryX=0.5;entryY=0;entryDx=0;entryDy=0;" edge="1" parent="1" source="2c5BFEw7uCcLmuuaQ_8N-14" target="2c5BFEw7uCcLmuuaQ_8N-17">
          <mxGeometry relative="1" as="geometry" />
        </mxCell>
        <mxCell id="2c5BFEw7uCcLmuuaQ_8N-14" value="Flask server script" style="whiteSpace=wrap;html=1;rounded=0;" vertex="1" parent="1">
          <mxGeometry x="30" y="410" width="120" height="60" as="geometry" />
        </mxCell>
        <mxCell id="2c5BFEw7uCcLmuuaQ_8N-91" value="" style="edgeStyle=orthogonalEdgeStyle;rounded=0;orthogonalLoop=1;jettySize=auto;html=1;" edge="1" parent="1" source="2c5BFEw7uCcLmuuaQ_8N-16" target="2c5BFEw7uCcLmuuaQ_8N-17">
          <mxGeometry relative="1" as="geometry" />
        </mxCell>
        <mxCell id="2c5BFEw7uCcLmuuaQ_8N-16" value="css" style="whiteSpace=wrap;html=1;rounded=0;" vertex="1" parent="1">
          <mxGeometry x="30" y="630" width="120" height="60" as="geometry" />
        </mxCell>
        <mxCell id="2c5BFEw7uCcLmuuaQ_8N-23" style="edgeStyle=orthogonalEdgeStyle;rounded=0;orthogonalLoop=1;jettySize=auto;html=1;entryX=1;entryY=0.5;entryDx=0;entryDy=0;" edge="1" parent="1" source="2c5BFEw7uCcLmuuaQ_8N-17" target="2c5BFEw7uCcLmuuaQ_8N-21">
          <mxGeometry relative="1" as="geometry" />
        </mxCell>
        <mxCell id="2c5BFEw7uCcLmuuaQ_8N-17" value="html&lt;br&gt;" style="whiteSpace=wrap;html=1;rounded=0;" vertex="1" parent="1">
          <mxGeometry x="30" y="540" width="120" height="60" as="geometry" />
        </mxCell>
        <mxCell id="2c5BFEw7uCcLmuuaQ_8N-53" style="edgeStyle=orthogonalEdgeStyle;rounded=0;orthogonalLoop=1;jettySize=auto;html=1;entryX=0.9;entryY=0.5;entryDx=0;entryDy=0;entryPerimeter=0;" edge="1" parent="1" source="2c5BFEw7uCcLmuuaQ_8N-21" target="2c5BFEw7uCcLmuuaQ_8N-55">
          <mxGeometry relative="1" as="geometry">
            <mxPoint x="-260" y="520.0588235294119" as="targetPoint" />
          </mxGeometry>
        </mxCell>
        <mxCell id="2c5BFEw7uCcLmuuaQ_8N-21" value="webpage&lt;br&gt;http://localhost:5000" style="shape=document;whiteSpace=wrap;html=1;boundedLbl=1;" vertex="1" parent="1">
          <mxGeometry x="-200" y="490" width="120" height="80" as="geometry" />
        </mxCell>
        <mxCell id="2c5BFEw7uCcLmuuaQ_8N-63" value="" style="edgeStyle=orthogonalEdgeStyle;rounded=0;orthogonalLoop=1;jettySize=auto;html=1;" edge="1" parent="1" source="2c5BFEw7uCcLmuuaQ_8N-25" target="2c5BFEw7uCcLmuuaQ_8N-28">
          <mxGeometry relative="1" as="geometry" />
        </mxCell>
        <mxCell id="2c5BFEw7uCcLmuuaQ_8N-25" value="webpage&lt;br&gt;textInput box&lt;br&gt;http://localhost:5000" style="shape=document;whiteSpace=wrap;html=1;boundedLbl=1;" vertex="1" parent="1">
          <mxGeometry x="200" y="800" width="120" height="80" as="geometry" />
        </mxCell>
        <mxCell id="2c5BFEw7uCcLmuuaQ_8N-61" value="" style="edgeStyle=orthogonalEdgeStyle;rounded=0;orthogonalLoop=1;jettySize=auto;html=1;" edge="1" parent="1" source="2c5BFEw7uCcLmuuaQ_8N-26" target="2c5BFEw7uCcLmuuaQ_8N-25">
          <mxGeometry relative="1" as="geometry" />
        </mxCell>
        <mxCell id="2c5BFEw7uCcLmuuaQ_8N-26" value="User inputs summoner name&lt;br&gt;e.g. &quot;The Steina&quot;" style="shape=callout;whiteSpace=wrap;html=1;perimeter=calloutPerimeter;" vertex="1" parent="1">
          <mxGeometry x="30" y="800" width="120" height="80" as="geometry" />
        </mxCell>
        <mxCell id="2c5BFEw7uCcLmuuaQ_8N-69" value="" style="edgeStyle=orthogonalEdgeStyle;rounded=0;orthogonalLoop=1;jettySize=auto;html=1;" edge="1" parent="1" source="2c5BFEw7uCcLmuuaQ_8N-28" target="2c5BFEw7uCcLmuuaQ_8N-68">
          <mxGeometry relative="1" as="geometry" />
        </mxCell>
        <mxCell id="2c5BFEw7uCcLmuuaQ_8N-28" value="Flask server" style="whiteSpace=wrap;html=1;" vertex="1" parent="1">
          <mxGeometry x="360" y="810" width="120" height="60" as="geometry" />
        </mxCell>
        <mxCell id="2c5BFEw7uCcLmuuaQ_8N-33" value="" style="edgeStyle=orthogonalEdgeStyle;rounded=0;orthogonalLoop=1;jettySize=auto;html=1;" edge="1" parent="1" source="2c5BFEw7uCcLmuuaQ_8N-30" target="2c5BFEw7uCcLmuuaQ_8N-32">
          <mxGeometry relative="1" as="geometry" />
        </mxCell>
        <mxCell id="2c5BFEw7uCcLmuuaQ_8N-34" value="Get summoner data" style="edgeLabel;html=1;align=center;verticalAlign=middle;resizable=0;points=[];fontSize=15;" vertex="1" connectable="0" parent="2c5BFEw7uCcLmuuaQ_8N-33">
          <mxGeometry x="-0.1598" y="-4" relative="1" as="geometry">
            <mxPoint x="-1" as="offset" />
          </mxGeometry>
        </mxCell>
        <mxCell id="2c5BFEw7uCcLmuuaQ_8N-30" value="Python script" style="whiteSpace=wrap;html=1;" vertex="1" parent="1">
          <mxGeometry x="770.29" y="810" width="120" height="60" as="geometry" />
        </mxCell>
        <mxCell id="2c5BFEw7uCcLmuuaQ_8N-36" value="" style="edgeStyle=orthogonalEdgeStyle;rounded=0;orthogonalLoop=1;jettySize=auto;html=1;entryX=0.5;entryY=0;entryDx=0;entryDy=0;" edge="1" parent="1" source="2c5BFEw7uCcLmuuaQ_8N-32" target="2c5BFEw7uCcLmuuaQ_8N-66">
          <mxGeometry relative="1" as="geometry">
            <mxPoint x="1000.29" y="960" as="targetPoint" />
          </mxGeometry>
        </mxCell>
        <mxCell id="2c5BFEw7uCcLmuuaQ_8N-32" value="API" style="ellipse;shape=cloud;whiteSpace=wrap;html=1;" vertex="1" parent="1">
          <mxGeometry x="1080" y="800" width="120" height="80" as="geometry" />
        </mxCell>
        <mxCell id="2c5BFEw7uCcLmuuaQ_8N-112" style="edgeStyle=orthogonalEdgeStyle;rounded=0;orthogonalLoop=1;jettySize=auto;html=1;entryX=0.5;entryY=0;entryDx=0;entryDy=0;" edge="1" parent="1" source="2c5BFEw7uCcLmuuaQ_8N-38" target="2c5BFEw7uCcLmuuaQ_8N-96">
          <mxGeometry relative="1" as="geometry" />
        </mxCell>
        <mxCell id="2c5BFEw7uCcLmuuaQ_8N-113" value="$puuid" style="edgeLabel;html=1;align=center;verticalAlign=middle;resizable=0;points=[];fontSize=15;" vertex="1" connectable="0" parent="2c5BFEw7uCcLmuuaQ_8N-112">
          <mxGeometry x="0.0396" y="4" relative="1" as="geometry">
            <mxPoint as="offset" />
          </mxGeometry>
        </mxCell>
        <mxCell id="2c5BFEw7uCcLmuuaQ_8N-115" style="edgeStyle=orthogonalEdgeStyle;rounded=0;orthogonalLoop=1;jettySize=auto;html=1;" edge="1" parent="1" source="2c5BFEw7uCcLmuuaQ_8N-38" target="2c5BFEw7uCcLmuuaQ_8N-114">
          <mxGeometry relative="1" as="geometry" />
        </mxCell>
        <mxCell id="2c5BFEw7uCcLmuuaQ_8N-38" value="Python script&lt;br&gt;sqlalchemy:write data to loldb" style="whiteSpace=wrap;html=1;" vertex="1" parent="1">
          <mxGeometry x="860" y="930" width="120" height="60" as="geometry" />
        </mxCell>
        <mxCell id="2c5BFEw7uCcLmuuaQ_8N-52" style="edgeStyle=orthogonalEdgeStyle;rounded=0;orthogonalLoop=1;jettySize=auto;html=1;entryX=0.5;entryY=0;entryDx=0;entryDy=0;" edge="1" parent="1" source="2c5BFEw7uCcLmuuaQ_8N-49" target="2c5BFEw7uCcLmuuaQ_8N-14">
          <mxGeometry relative="1" as="geometry" />
        </mxCell>
        <mxCell id="2c5BFEw7uCcLmuuaQ_8N-49" value="User visits http://localhost:5000" style="shape=callout;whiteSpace=wrap;html=1;perimeter=calloutPerimeter;" vertex="1" parent="1">
          <mxGeometry x="30" y="260" width="120" height="80" as="geometry" />
        </mxCell>
        <mxCell id="2c5BFEw7uCcLmuuaQ_8N-55" value="&lt;br&gt;&lt;br&gt;&lt;br&gt;User" style="shape=actor;whiteSpace=wrap;html=1;" vertex="1" parent="1">
          <mxGeometry x="-310" y="500" width="40" height="60" as="geometry" />
        </mxCell>
        <mxCell id="2c5BFEw7uCcLmuuaQ_8N-56" value="TODO: Move to remote host" style="shape=note;whiteSpace=wrap;html=1;backgroundOutline=1;darkOpacity=0.05;fillColor=#f8cecc;strokeColor=#b85450;" vertex="1" parent="1">
          <mxGeometry x="180" y="250" width="70" height="70" as="geometry" />
        </mxCell>
        <mxCell id="2c5BFEw7uCcLmuuaQ_8N-62" style="edgeStyle=orthogonalEdgeStyle;rounded=0;orthogonalLoop=1;jettySize=auto;html=1;entryX=0;entryY=0;entryDx=0;entryDy=25;entryPerimeter=0;" edge="1" parent="1" source="2c5BFEw7uCcLmuuaQ_8N-58" target="2c5BFEw7uCcLmuuaQ_8N-26">
          <mxGeometry relative="1" as="geometry" />
        </mxCell>
        <mxCell id="2c5BFEw7uCcLmuuaQ_8N-58" value="&lt;br&gt;&lt;br&gt;&lt;br&gt;User" style="shape=actor;whiteSpace=wrap;html=1;" vertex="1" parent="1">
          <mxGeometry x="-100" y="800" width="40" height="60" as="geometry" />
        </mxCell>
        <mxCell id="2c5BFEw7uCcLmuuaQ_8N-74" value="" style="edgeStyle=orthogonalEdgeStyle;rounded=0;orthogonalLoop=1;jettySize=auto;html=1;" edge="1" parent="1" source="2c5BFEw7uCcLmuuaQ_8N-66" target="2c5BFEw7uCcLmuuaQ_8N-38">
          <mxGeometry relative="1" as="geometry" />
        </mxCell>
        <mxCell id="2c5BFEw7uCcLmuuaQ_8N-66" value="JSON&lt;br&gt;" style="shape=document;whiteSpace=wrap;html=1;boundedLbl=1;" vertex="1" parent="1">
          <mxGeometry x="1080" y="920" width="120" height="80" as="geometry" />
        </mxCell>
        <mxCell id="2c5BFEw7uCcLmuuaQ_8N-70" value="" style="edgeStyle=orthogonalEdgeStyle;rounded=0;orthogonalLoop=1;jettySize=auto;html=1;" edge="1" parent="1" source="2c5BFEw7uCcLmuuaQ_8N-68" target="2c5BFEw7uCcLmuuaQ_8N-30">
          <mxGeometry relative="1" as="geometry" />
        </mxCell>
        <mxCell id="2c5BFEw7uCcLmuuaQ_8N-71" value="Not in db" style="edgeLabel;html=1;align=center;verticalAlign=middle;resizable=0;points=[];fontSize=18;" vertex="1" connectable="0" parent="2c5BFEw7uCcLmuuaQ_8N-70">
          <mxGeometry x="0.0973" y="-3" relative="1" as="geometry">
            <mxPoint as="offset" />
          </mxGeometry>
        </mxCell>
        <mxCell id="2c5BFEw7uCcLmuuaQ_8N-73" value="" style="edgeStyle=orthogonalEdgeStyle;rounded=0;orthogonalLoop=1;jettySize=auto;html=1;" edge="1" parent="1" source="2c5BFEw7uCcLmuuaQ_8N-68" target="2c5BFEw7uCcLmuuaQ_8N-72">
          <mxGeometry relative="1" as="geometry" />
        </mxCell>
        <mxCell id="2c5BFEw7uCcLmuuaQ_8N-92" value="&lt;font style=&quot;font-size: 15px;&quot;&gt;Records Located&lt;/font&gt;" style="edgeLabel;html=1;align=center;verticalAlign=middle;resizable=0;points=[];" vertex="1" connectable="0" parent="2c5BFEw7uCcLmuuaQ_8N-73">
          <mxGeometry x="-0.2781" y="-3" relative="1" as="geometry">
            <mxPoint y="-1" as="offset" />
          </mxGeometry>
        </mxCell>
        <mxCell id="2c5BFEw7uCcLmuuaQ_8N-68" value="Python script&lt;br&gt;sqlalchemy:Query for summoner in loldb" style="whiteSpace=wrap;html=1;" vertex="1" parent="1">
          <mxGeometry x="520" y="810" width="120" height="60" as="geometry" />
        </mxCell>
        <mxCell id="2c5BFEw7uCcLmuuaQ_8N-76" value="" style="edgeStyle=orthogonalEdgeStyle;rounded=0;orthogonalLoop=1;jettySize=auto;html=1;" edge="1" parent="1" source="2c5BFEw7uCcLmuuaQ_8N-72" target="2c5BFEw7uCcLmuuaQ_8N-75">
          <mxGeometry relative="1" as="geometry" />
        </mxCell>
        <mxCell id="2c5BFEw7uCcLmuuaQ_8N-72" value="matches&lt;br&gt;match timelines" style="shape=document;whiteSpace=wrap;html=1;boundedLbl=1;" vertex="1" parent="1">
          <mxGeometry x="520" y="940" width="120" height="80" as="geometry" />
        </mxCell>
        <mxCell id="2c5BFEw7uCcLmuuaQ_8N-93" value="" style="edgeStyle=orthogonalEdgeStyle;rounded=0;orthogonalLoop=1;jettySize=auto;html=1;" edge="1" parent="1" source="2c5BFEw7uCcLmuuaQ_8N-75">
          <mxGeometry relative="1" as="geometry">
            <mxPoint x="380" y="1090" as="targetPoint" />
          </mxGeometry>
        </mxCell>
        <mxCell id="2c5BFEw7uCcLmuuaQ_8N-94" value="&lt;font style=&quot;font-size: 15px;&quot;&gt;Fresh&lt;/font&gt;" style="edgeLabel;html=1;align=center;verticalAlign=middle;resizable=0;points=[];" vertex="1" connectable="0" parent="2c5BFEw7uCcLmuuaQ_8N-93">
          <mxGeometry x="-0.1931" relative="1" as="geometry">
            <mxPoint as="offset" />
          </mxGeometry>
        </mxCell>
        <mxCell id="2c5BFEw7uCcLmuuaQ_8N-97" value="" style="edgeStyle=orthogonalEdgeStyle;rounded=0;orthogonalLoop=1;jettySize=auto;html=1;" edge="1" parent="1" source="2c5BFEw7uCcLmuuaQ_8N-75" target="2c5BFEw7uCcLmuuaQ_8N-96">
          <mxGeometry relative="1" as="geometry" />
        </mxCell>
        <mxCell id="2c5BFEw7uCcLmuuaQ_8N-102" value="Stale" style="edgeLabel;html=1;align=center;verticalAlign=middle;resizable=0;points=[];fontSize=15;" vertex="1" connectable="0" parent="2c5BFEw7uCcLmuuaQ_8N-97">
          <mxGeometry x="0.1833" y="-1" relative="1" as="geometry">
            <mxPoint as="offset" />
          </mxGeometry>
        </mxCell>
        <mxCell id="2c5BFEw7uCcLmuuaQ_8N-75" value="Stale Data?&lt;br&gt;e.g. &amp;gt;4 hrs" style="rhombus;whiteSpace=wrap;html=1;" vertex="1" parent="1">
          <mxGeometry x="520" y="1040" width="120" height="90" as="geometry" />
        </mxCell>
        <mxCell id="2c5BFEw7uCcLmuuaQ_8N-89" style="edgeStyle=orthogonalEdgeStyle;rounded=0;orthogonalLoop=1;jettySize=auto;html=1;entryX=1;entryY=0.5;entryDx=0;entryDy=0;" edge="1" parent="1" source="2c5BFEw7uCcLmuuaQ_8N-77" target="2c5BFEw7uCcLmuuaQ_8N-85">
          <mxGeometry relative="1" as="geometry" />
        </mxCell>
        <mxCell id="2c5BFEw7uCcLmuuaQ_8N-77" value="flask script" style="whiteSpace=wrap;html=1;" vertex="1" parent="1">
          <mxGeometry x="100" y="1055" width="120" height="60" as="geometry" />
        </mxCell>
        <mxCell id="2c5BFEw7uCcLmuuaQ_8N-116" value="" style="edgeStyle=orthogonalEdgeStyle;rounded=0;orthogonalLoop=1;jettySize=auto;html=1;" edge="1" parent="1" source="2c5BFEw7uCcLmuuaQ_8N-83" target="2c5BFEw7uCcLmuuaQ_8N-85">
          <mxGeometry relative="1" as="geometry" />
        </mxCell>
        <mxCell id="2c5BFEw7uCcLmuuaQ_8N-83" value="css" style="whiteSpace=wrap;html=1;rounded=0;" vertex="1" parent="1">
          <mxGeometry x="-90" y="1109" width="120" height="60" as="geometry" />
        </mxCell>
        <mxCell id="2c5BFEw7uCcLmuuaQ_8N-84" style="edgeStyle=orthogonalEdgeStyle;rounded=0;orthogonalLoop=1;jettySize=auto;html=1;entryX=1;entryY=0.5;entryDx=0;entryDy=0;" edge="1" source="2c5BFEw7uCcLmuuaQ_8N-85" target="2c5BFEw7uCcLmuuaQ_8N-87" parent="1">
          <mxGeometry relative="1" as="geometry" />
        </mxCell>
        <mxCell id="2c5BFEw7uCcLmuuaQ_8N-85" value="html&lt;br&gt;" style="whiteSpace=wrap;html=1;rounded=0;" vertex="1" parent="1">
          <mxGeometry x="-90" y="980" width="120" height="60" as="geometry" />
        </mxCell>
        <mxCell id="2c5BFEw7uCcLmuuaQ_8N-86" style="edgeStyle=orthogonalEdgeStyle;rounded=0;orthogonalLoop=1;jettySize=auto;html=1;entryX=0.9;entryY=0.5;entryDx=0;entryDy=0;entryPerimeter=0;" edge="1" source="2c5BFEw7uCcLmuuaQ_8N-87" target="2c5BFEw7uCcLmuuaQ_8N-88" parent="1">
          <mxGeometry relative="1" as="geometry">
            <mxPoint x="-380" y="980.0588235294119" as="targetPoint" />
          </mxGeometry>
        </mxCell>
        <mxCell id="2c5BFEw7uCcLmuuaQ_8N-87" value="webpage&lt;br&gt;http://localhost:5000/lookup" style="shape=document;whiteSpace=wrap;html=1;boundedLbl=1;" vertex="1" parent="1">
          <mxGeometry x="-370" y="950" width="170" height="90" as="geometry" />
        </mxCell>
        <mxCell id="2c5BFEw7uCcLmuuaQ_8N-88" value="&lt;br&gt;&lt;br&gt;&lt;br&gt;User" style="shape=actor;whiteSpace=wrap;html=1;" vertex="1" parent="1">
          <mxGeometry x="-460" y="965" width="40" height="60" as="geometry" />
        </mxCell>
        <mxCell id="2c5BFEw7uCcLmuuaQ_8N-110" style="edgeStyle=orthogonalEdgeStyle;rounded=0;orthogonalLoop=1;jettySize=auto;html=1;entryX=0.4;entryY=0.1;entryDx=0;entryDy=0;entryPerimeter=0;" edge="1" parent="1" source="2c5BFEw7uCcLmuuaQ_8N-96" target="2c5BFEw7uCcLmuuaQ_8N-99">
          <mxGeometry relative="1" as="geometry" />
        </mxCell>
        <mxCell id="2c5BFEw7uCcLmuuaQ_8N-111" value="API Call" style="edgeLabel;html=1;align=center;verticalAlign=middle;resizable=0;points=[];fontSize=15;" vertex="1" connectable="0" parent="2c5BFEw7uCcLmuuaQ_8N-110">
          <mxGeometry x="0.0849" y="1" relative="1" as="geometry">
            <mxPoint as="offset" />
          </mxGeometry>
        </mxCell>
        <mxCell id="2c5BFEw7uCcLmuuaQ_8N-96" value="Python Script" style="whiteSpace=wrap;html=1;" vertex="1" parent="1">
          <mxGeometry x="720" y="1055" width="120" height="60" as="geometry" />
        </mxCell>
        <mxCell id="2c5BFEw7uCcLmuuaQ_8N-109" value="" style="edgeStyle=orthogonalEdgeStyle;rounded=0;orthogonalLoop=1;jettySize=auto;html=1;" edge="1" parent="1" source="2c5BFEw7uCcLmuuaQ_8N-99" target="2c5BFEw7uCcLmuuaQ_8N-108">
          <mxGeometry relative="1" as="geometry" />
        </mxCell>
        <mxCell id="2c5BFEw7uCcLmuuaQ_8N-99" value="API" style="ellipse;shape=cloud;whiteSpace=wrap;html=1;" vertex="1" parent="1">
          <mxGeometry x="730" y="1220" width="120" height="80" as="geometry" />
        </mxCell>
        <mxCell id="2c5BFEw7uCcLmuuaQ_8N-122" value="" style="edgeStyle=orthogonalEdgeStyle;rounded=0;orthogonalLoop=1;jettySize=auto;html=1;" edge="1" parent="1" source="2c5BFEw7uCcLmuuaQ_8N-108" target="2c5BFEw7uCcLmuuaQ_8N-120">
          <mxGeometry relative="1" as="geometry" />
        </mxCell>
        <mxCell id="2c5BFEw7uCcLmuuaQ_8N-108" value="match data&lt;br&gt;match timelines" style="shape=document;whiteSpace=wrap;html=1;boundedLbl=1;" vertex="1" parent="1">
          <mxGeometry x="690" y="1370" width="120" height="80" as="geometry" />
        </mxCell>
        <mxCell id="2c5BFEw7uCcLmuuaQ_8N-114" value="loldb" style="shape=internalStorage;whiteSpace=wrap;html=1;backgroundOutline=1;" vertex="1" parent="1">
          <mxGeometry x="880" y="1090" width="80" height="80" as="geometry" />
        </mxCell>
        <mxCell id="2c5BFEw7uCcLmuuaQ_8N-118" value="" style="edgeStyle=orthogonalEdgeStyle;rounded=0;orthogonalLoop=1;jettySize=auto;html=1;" edge="1" parent="1" source="2c5BFEw7uCcLmuuaQ_8N-117" target="2c5BFEw7uCcLmuuaQ_8N-77">
          <mxGeometry relative="1" as="geometry" />
        </mxCell>
        <mxCell id="2c5BFEw7uCcLmuuaQ_8N-117" value="match data&lt;br&gt;match timelines" style="shape=document;whiteSpace=wrap;html=1;boundedLbl=1;" vertex="1" parent="1">
          <mxGeometry x="260" y="1050" width="120" height="80" as="geometry" />
        </mxCell>
        <mxCell id="2c5BFEw7uCcLmuuaQ_8N-123" value="" style="edgeStyle=orthogonalEdgeStyle;rounded=0;orthogonalLoop=1;jettySize=auto;html=1;" edge="1" parent="1" source="2c5BFEw7uCcLmuuaQ_8N-120" target="2c5BFEw7uCcLmuuaQ_8N-121">
          <mxGeometry relative="1" as="geometry" />
        </mxCell>
        <mxCell id="2c5BFEw7uCcLmuuaQ_8N-129" style="edgeStyle=orthogonalEdgeStyle;rounded=0;orthogonalLoop=1;jettySize=auto;html=1;entryX=1;entryY=0.5;entryDx=0;entryDy=0;" edge="1" parent="1" source="2c5BFEw7uCcLmuuaQ_8N-120" target="2c5BFEw7uCcLmuuaQ_8N-126">
          <mxGeometry relative="1" as="geometry" />
        </mxCell>
        <mxCell id="2c5BFEw7uCcLmuuaQ_8N-120" value="Python script&lt;br&gt;sqlalchemy:write data to loldb" style="whiteSpace=wrap;html=1;" vertex="1" parent="1">
          <mxGeometry x="470" y="1320" width="120" height="60" as="geometry" />
        </mxCell>
        <mxCell id="2c5BFEw7uCcLmuuaQ_8N-121" value="loldb" style="shape=internalStorage;whiteSpace=wrap;html=1;backgroundOutline=1;" vertex="1" parent="1">
          <mxGeometry x="490" y="1470" width="80" height="80" as="geometry" />
        </mxCell>
        <mxCell id="2c5BFEw7uCcLmuuaQ_8N-128" style="edgeStyle=orthogonalEdgeStyle;rounded=0;orthogonalLoop=1;jettySize=auto;html=1;entryX=0.5;entryY=1;entryDx=0;entryDy=0;" edge="1" parent="1" source="2c5BFEw7uCcLmuuaQ_8N-126" target="2c5BFEw7uCcLmuuaQ_8N-77">
          <mxGeometry relative="1" as="geometry" />
        </mxCell>
        <mxCell id="2c5BFEw7uCcLmuuaQ_8N-126" value="match data&lt;br&gt;match timelines" style="shape=document;whiteSpace=wrap;html=1;boundedLbl=1;" vertex="1" parent="1">
          <mxGeometry x="260" y="1200" width="120" height="80" as="geometry" />
        </mxCell>
      </root>
    </mxGraphModel>
  </diagram>
</mxfile>
